<?xml version="1.0" standalone="no"?><!DOCTYPE svg PUBLIC "-//W3C//DTD SVG 1.1//EN" "http://www.w3.org/Graphics/SVG/1.1/DTD/svg11.dtd"><svg t="1608694383941" class="icon" viewBox="0 0 1024 1024" version="1.1" xmlns="http://www.w3.org/2000/svg" p-id="5576" xmlns:xlink="http://www.w3.org/1999/xlink" width="200" height="200"><defs><style type="text/css"></style></defs><path d="M304 416.426667V361.813333C304 256.256 387.584 170.666667 490.666667 170.666667s186.666667 85.589333 186.666666 191.146666v54.613334h53.333334c44.202667 0 80 36.693333 80 81.92v273.066666c0 45.226667-35.84 81.92-80 81.92H250.666667C206.464 853.333333 170.666667 816.64 170.666667 771.413333v-273.066666c0-45.226667 35.84-81.92 80-81.92h53.333333z m53.333333 0h266.666667V361.813333c0-75.392-59.733333-136.533333-133.333333-136.533333-73.642667 0-133.333333 61.141333-133.333334 136.533333v54.613334z m373.333334 382.293333a27.008 27.008 0 0 0 26.666666-27.306667v-273.066666c0-15.061333-11.946667-27.306667-26.666666-27.306667H250.666667a27.008 27.008 0 0 0-26.666667 27.306667v273.066666c0 15.061333 11.946667 27.306667 26.666667 27.306667h480z m-266.666667-218.453333c0-15.061333 11.946667-27.306667 26.666667-27.306667s26.666667 12.245333 26.666666 27.306667v109.226666c0 15.061333-11.946667 27.306667-26.666666 27.306667a27.008 27.008 0 0 1-26.666667-27.306667V580.266667z" p-id="5577"></path></svg>